<svg xmlns="http://www.w3.org/2000/svg" width="31.796" height="30.844" viewBox="0 0 31.796 30.844"><g transform="translate(0)"><path d="M177.182,74.054H147.2a.907.907,0,0,1-.907-.907V53.613a.907.907,0,0,1,.907-.907h7.876v-2.38a7.116,7.116,0,0,1,14.233,0v2.38h7.874a.907.907,0,0,1,.907.907V73.148A.907.907,0,0,1,177.182,74.054Zm-29.076-1.814h28.169V54.52h-6.967v4.168a.907.907,0,0,1-1.814,0V54.52H156.889v4.168a.907.907,0,0,1-1.814,0V54.52h-6.969Zm8.782-19.535h10.605v-2.38a5.373,5.373,0,0,0-5.3-5.3,5.309,5.309,0,0,0-5.3,5.3Z" transform="translate(-146.293 -43.21)" fill="#f70"/></g></svg>