<svg xmlns="http://www.w3.org/2000/svg" width="22.319" height="18.934" viewBox="0 0 22.319 18.934"><g transform="translate(0 -38.821)"><path d="M21.628,42.051a2.358,2.358,0,0,0-1.669-.691H9.275a.519.519,0,0,1-.355-.141h0L7.043,39.459a2.361,2.361,0,0,0-1.614-.638H2.36A2.36,2.36,0,0,0,0,41.181V55.4a2.36,2.36,0,0,0,2.36,2.36h17.6a2.36,2.36,0,0,0,2.36-2.36V43.719A2.357,2.357,0,0,0,21.628,42.051Zm-1.3,13.711a.512.512,0,0,1-.367.152H2.36a.519.519,0,0,1-.519-.519V41.181a.518.518,0,0,1,.519-.519H5.429a.519.519,0,0,1,.355.14l1.877,1.76h0a2.363,2.363,0,0,0,1.613.637H19.959a.518.518,0,0,1,.519.518V55.4A.511.511,0,0,1,20.326,55.762Z" transform="translate(0)" fill="#101010"/></g></svg>