<svg xmlns="http://www.w3.org/2000/svg" width="18.695" height="17.083" viewBox="0 0 18.695 17.083"><path d="M110.163,28.854a1.405,1.405,0,0,0,1.405-1.405l.513-5.376h-2.248l-1.075,5.376A1.405,1.405,0,0,0,110.163,28.854Z" transform="translate(-104.787 -22.072)" fill="#fff"/><path d="M218.924,28.854a1.405,1.405,0,0,0,1.4-1.405l-.281-5.376H217.8l-.281,5.376A1.405,1.405,0,0,0,218.924,28.854Z" transform="translate(-209.577 -22.072)" fill="#fff"/><path d="M314.144,28.853a1.405,1.405,0,0,0,1.4-1.405l-1.075-5.376h-2.248l.513,5.376A1.405,1.405,0,0,0,314.144,28.853Z" transform="translate(-300.826 -22.071)" fill="#fff"/><path d="M16.825,22.071H14.577l1.307,5.376a1.4,1.4,0,0,0,1.062,1.358v9.173H14.829V31.772H9.487v6.207H1.749V28.805A1.4,1.4,0,0,0,2.81,27.447l1.307-5.376H1.87L0,27.447a1.4,1.4,0,0,0,.573,1.127v10.58H18.122V28.574a1.4,1.4,0,0,0,.573-1.127ZM13.947,37.978H10.369V32.654h3.579Z" transform="translate(0 -22.071)" fill="#fff"/><rect width="3.125" height="3.125" transform="translate(3.995 9.284)" fill="#fff"/></svg>