<svg xmlns="http://www.w3.org/2000/svg" width="15.653" height="15.653" viewBox="0 0 15.653 15.653"><g transform="translate(0)"><path d="M198.029,168.2a7.826,7.826,0,1,1,7.827-7.826A7.835,7.835,0,0,1,198.029,168.2Zm-4.433-2.278a7.093,7.093,0,0,0,8.866,0l-.136-1.85a.955.955,0,0,0-.632-.9l-2.1-.713a1.033,1.033,0,0,1-.727-1.071,1.073,1.073,0,0,1,.475-1.074c.056-.047.121-.1.2-.168a2.276,2.276,0,1,0-3.026,0c.076.067.141.121.2.168a1.073,1.073,0,0,1,.475,1.074,1.032,1.032,0,0,1-.727,1.071l-2.1.713a.953.953,0,0,0-.632.9Zm4.433-12.654a7.1,7.1,0,0,0-5.111,12.036l.1-1.286a1.655,1.655,0,0,1,1.119-1.533l2.1-.713c.154-.052.237-.13.237-.388,0-.339,0-.339-.217-.521-.061-.051-.131-.11-.213-.182a3,3,0,1,1,3.985,0c-.081.073-.152.132-.212.182-.217.182-.217.182-.217.521,0,.258.084.336.238.388l2.1.713a1.657,1.657,0,0,1,1.119,1.533l.095,1.286a7.1,7.1,0,0,0-5.111-12.036Z" transform="translate(-190.203 -152.548)" fill="#fff"/></g></svg>