<svg xmlns="http://www.w3.org/2000/svg" width="19.748" height="16.753" viewBox="0 0 19.748 16.753"><path d="M19.136,41.679a2.086,2.086,0,0,0-1.476-.611H8.206a.459.459,0,0,1-.314-.125h0L6.231,39.386A2.089,2.089,0,0,0,4.8,38.821H2.088A2.088,2.088,0,0,0,0,40.909V53.486a2.088,2.088,0,0,0,2.088,2.088H17.66a2.088,2.088,0,0,0,2.088-2.088V43.155A2.086,2.086,0,0,0,19.136,41.679ZM17.985,53.811a.453.453,0,0,1-.325.135H2.088a.459.459,0,0,1-.459-.459V40.909a.458.458,0,0,1,.459-.459H4.8a.459.459,0,0,1,.314.124l1.661,1.558h0a2.091,2.091,0,0,0,1.427.564H17.66a.458.458,0,0,1,.459.458V53.486A.452.452,0,0,1,17.985,53.811Z" transform="translate(0 -38.821)" fill="#fff"/></svg>