<svg xmlns="http://www.w3.org/2000/svg" width="16.356" height="16.357" viewBox="0 0 16.356 16.357"><g transform="translate(0.5 0.5)"><path d="M-126.014,307.894a.457.457,0,0,1-.324-.134l-5.557-5.556a5.456,5.456,0,0,1-3.536,1.3,5.489,5.489,0,0,1-5.482-5.482,5.488,5.488,0,0,1,5.482-5.482,5.488,5.488,0,0,1,5.482,5.482,5.458,5.458,0,0,1-1.3,3.538l5.557,5.555a.458.458,0,0,1,0,.647A.458.458,0,0,1-126.014,307.894Zm-9.417-14.441A4.572,4.572,0,0,0-140,298.019a4.572,4.572,0,0,0,4.567,4.566,4.573,4.573,0,0,0,4.568-4.566A4.573,4.573,0,0,0-135.431,293.452Z" transform="translate(140.913 -292.537)" fill="#fff" stroke="#fff" stroke-width="1"/></g></svg>