<svg xmlns="http://www.w3.org/2000/svg" xmlns:xlink="http://www.w3.org/1999/xlink" width="35" height="48" viewBox="0 0 35 48"><defs><clipPath id="a"><rect width="35" height="48" transform="translate(0 0.052)" fill="#fff"/></clipPath></defs><g transform="translate(39.646 -35.452)"><g transform="translate(-39.646 35.4)" clip-path="url(#a)"><path d="M49.881,24.294a.863.863,0,0,1-.37-.083C42.9,21.093,37.221,11.26,36.982,10.843a.868.868,0,0,1-.07-.705l.733-2.2-1.5-2.25a.867.867,0,0,1-.068-.841l.868-1.908a.869.869,0,0,1,.292-.351l3.47-2.43a.868.868,0,1,1,1,1.421L38.427,3.873l-.57,1.253,1.468,2.2a.869.869,0,0,1,.1.756l-.742,2.227c1.043,1.728,6.1,9.751,11.568,12.331a.868.868,0,0,1-.371,1.652" transform="translate(-28.587 -0.534)" fill="#fff"/><path d="M121.543,45.209h-5.206a.868.868,0,0,1,0-1.735h4.278L119.13,21.182a6.04,6.04,0,0,0-2-4.109l-4.846-4.363a.868.868,0,1,1,1.161-1.289l4.846,4.362a7.768,7.768,0,0,1,2.567,5.284l1.547,23.216a.868.868,0,0,1-.866.925" transform="translate(-88.103 -9.302)" fill="#fff"/><path d="M88.148,104.97H76.869a.868.868,0,1,1,0-1.735H87.28V72.869a.868.868,0,1,1,1.735,0V104.1a.868.868,0,0,1-.868.868" transform="translate(-59.912 -56.917)" fill="#fff"/><path d="M81.206,107.412a.868.868,0,0,1-.868-.868V82.58a32,32,0,0,1-3.026-4.086c-.456-.709-.863-1.455-1.208-2.1a.868.868,0,1,1,1.528-.822c.346.642.719,1.324,1.146,1.989a30.1,30.1,0,0,0,3.074,4.107.867.867,0,0,1,.222.579v24.293a.868.868,0,0,1-.868.868" transform="translate(-59.911 -59.358)" fill="#fff"/><path d="M61.205,18.029a.867.867,0,0,1-.767-.462A39.171,39.171,0,0,1,56,.869.868.868,0,0,1,56.867,0h8.676a.868.868,0,0,1,.868.868,39.18,39.18,0,0,1-4.438,16.7.867.867,0,0,1-.767.462M57.77,1.736a38.988,38.988,0,0,0,3.435,13.477A38.87,38.87,0,0,0,64.64,1.736Z" transform="translate(-44.248 -0.534)" fill="#fff"/><path d="M82.306,20.076a.868.868,0,0,1-.621-1.473,49.475,49.475,0,0,0,6.3-8.293l-.742-2.227a.867.867,0,0,1,.1-.755l1.468-2.2-.57-1.255L84.967,1.579A.868.868,0,1,1,85.961.158l3.47,2.428a.865.865,0,0,1,.293.352l.868,1.91a.868.868,0,0,1-.068.84l-1.5,2.25.734,2.2a.866.866,0,0,1-.07.706,50.515,50.515,0,0,1-6.76,8.97.864.864,0,0,1-.621.262" transform="translate(-64.17 -0.534)" fill="#fff"/><path d="M6.074,45.209H.868A.868.868,0,0,1,0,44.283L1.551,21.066a7.761,7.761,0,0,1,2.566-5.284L8.964,11.42a.868.868,0,1,1,1.161,1.29L5.278,17.072a6.034,6.034,0,0,0-2,4.11L1.8,43.473H6.074a.868.868,0,0,1,0,1.735" transform="translate(-0.396 -9.302)" fill="#fff"/><path d="M36.147,104.97H24.868A.868.868,0,0,1,24,104.1V72.869a.868.868,0,1,1,1.735,0v30.367H36.147a.868.868,0,0,1,0,1.735" transform="translate(-19.19 -56.917)" fill="#fff"/><path d="M68.868,116a.868.868,0,1,0,.868.868.866.866,0,0,0-.868-.868" transform="translate(-53.647 -91.373)" fill="#fff"/><path d="M84.867,116a.868.868,0,1,0,.868.868.866.866,0,0,0-.868-.868" transform="translate(-66.175 -91.373)" fill="#fff"/><path d="M68.868,140a.868.868,0,1,0,.868.868.866.866,0,0,0-.868-.868" transform="translate(-53.647 -110.168)" fill="#fff"/><path d="M84.867,140a.868.868,0,1,0,.868.868.866.866,0,0,0-.868-.868" transform="translate(-66.175 -110.168)" fill="#fff"/><path d="M31.808,150.942H24.868a.868.868,0,1,1,0-1.735h6.073v-3.471H24.868a.868.868,0,0,1,0-1.735h6.941a.868.868,0,0,1,.868.868v5.206a.868.868,0,0,1-.868.868" transform="translate(-19.19 -113.3)" fill="#fff"/><path d="M103.808,169.737H96.867a.868.868,0,1,1,0-1.735h6.941a.868.868,0,1,1,0,1.735" transform="translate(-75.572 -132.095)" fill="#fff"/><path d="M103.808,145.736H96.867a.868.868,0,0,1,0-1.735h6.941a.868.868,0,0,1,0,1.735" transform="translate(-75.572 -113.3)" fill="#fff"/></g></g></svg>