<svg xmlns="http://www.w3.org/2000/svg" width="38.282" height="46.023" viewBox="0 0 38.282 46.023"><g transform="translate(-43.062)"><path d="M61.053,6.969c-.081-1.049-.161-2-.229-2.747-.034-.373-.066-.7-.091-.95s-.046-.446-.063-.569a3.3,3.3,0,0,0-.222-.85A2.779,2.779,0,0,0,59.622.714,2.361,2.361,0,0,0,58.125.2s-.005,0-.007,0a2.555,2.555,0,0,0-1.053.222,2.445,2.445,0,0,0-1.116,1.022,2.87,2.87,0,0,0-.373,1.444v8.388a.968.968,0,0,1-.044.316.24.24,0,0,1-.044.085.128.128,0,0,1-.065.048.512.512,0,0,1-.21.035.232.232,0,0,1-.1-.021.245.245,0,0,1-.11-.1.348.348,0,0,1-.054-.194v0l-.036-8.71a2.792,2.792,0,0,0-.224-1.11,2.671,2.671,0,0,0-4.909,0,2.792,2.792,0,0,0-.224,1.11l-.036,8.71v0a.347.347,0,0,1-.054.194.243.243,0,0,1-.109.1.235.235,0,0,1-.1.021.507.507,0,0,1-.21-.035.131.131,0,0,1-.066-.048.268.268,0,0,1-.044-.085,1,1,0,0,1-.043-.316V2.883a2.871,2.871,0,0,0-.374-1.444A2.437,2.437,0,0,0,47.4.417,2.554,2.554,0,0,0,46.346.195s-.005,0-.008,0a2.36,2.36,0,0,0-1.5.516,2.781,2.781,0,0,0-.827,1.139,3.331,3.331,0,0,0-.222.85c-.017.122-.036.31-.063.569s-.056.577-.09.95c-.069.745-.149,1.7-.229,2.747-.161,2.1-.314,4.568-.347,6.523,0,.06,0,.119,0,.18a8.475,8.475,0,0,0,1.392,4.865,7.142,7.142,0,0,0,2.865,2.452,2.607,2.607,0,0,1,1.063.9,2.435,2.435,0,0,1,.412,1.36L48.453,42.97v.054a2.994,2.994,0,0,0,3,3h1.561a2.994,2.994,0,0,0,3-3V42.97l-.339-19.718a2.43,2.43,0,0,1,.412-1.36,2.6,2.6,0,0,1,1.063-.9,7.144,7.144,0,0,0,2.864-2.452A8.47,8.47,0,0,0,61.4,13.672c0-.061,0-.12,0-.18C61.367,11.536,61.213,9.065,61.053,6.969ZM58.481,17.494a5.292,5.292,0,0,1-2.116,1.814,4.455,4.455,0,0,0-1.823,1.557,4.3,4.3,0,0,0-.724,2.391v.008L54.157,43v.022a1.141,1.141,0,0,1-1.145,1.145H51.451a1.142,1.142,0,0,1-1.145-1.145V43l.339-19.739v-.008a4.3,4.3,0,0,0-.723-2.391A4.461,4.461,0,0,0,48.1,19.307a5.29,5.29,0,0,1-2.116-1.814,6.651,6.651,0,0,1-1.068-3.822c0-.052,0-.1,0-.152.051-3.3.481-8.323.656-10.064.027-.246.046-.429.059-.516a1.48,1.48,0,0,1,.181-.556.712.712,0,0,1,.28-.282.553.553,0,0,1,.254-.051h0a.661.661,0,0,1,.289.056.565.565,0,0,1,.193.144.951.951,0,0,1,.2.633v8.388a2.724,2.724,0,0,0,.191,1.038,2.021,2.021,0,0,0,1.186,1.155,2.379,2.379,0,0,0,.838.145,2.135,2.135,0,0,0,.853-.179,2.161,2.161,0,0,0,.678-.482,2.206,2.206,0,0,0,.587-1.506l.037-8.71v0a.956.956,0,0,1,.073-.38.8.8,0,0,1,.185-.263.823.823,0,0,1,1.321.263.957.957,0,0,1,.074.38v0l.036,8.71a2.2,2.2,0,0,0,.588,1.506,2.154,2.154,0,0,0,.678.482,2.131,2.131,0,0,0,.852.179,2.372,2.372,0,0,0,.838-.145,1.984,1.984,0,0,0,.581-.329,2.015,2.015,0,0,0,.607-.826,2.724,2.724,0,0,0,.191-1.038V2.883a.951.951,0,0,1,.2-.633.563.563,0,0,1,.193-.144.664.664,0,0,1,.29-.056h0a.55.55,0,0,1,.253.051.707.707,0,0,1,.281.282,1.468,1.468,0,0,1,.18.556c.012.086.032.27.059.516.176,1.74.6,6.764.656,10.064,0,.051,0,.1,0,.152A6.653,6.653,0,0,1,58.481,17.494Z" fill="#fff"/><path d="M280.479,6.994a9.6,9.6,0,0,0-2.931-2.432,7.043,7.043,0,0,0-6.811,0,10.2,10.2,0,0,0-4.093,4.152,14.13,14.13,0,0,0-1.669,6.864,10.991,10.991,0,0,0,1.448,5.386,12.65,12.65,0,0,0,2.581,3.229c.348.308.641.564.874.783a5.143,5.143,0,0,1,.42.435,1.608,1.608,0,0,1,.306.506,1.992,1.992,0,0,1,.1.687l-.339,19.718v.053a3,3,0,0,0,.858,2.1h0a3,3,0,0,0,2.139.9h1.559a3,3,0,0,0,3-3v-.053L277.582,26.6a2.1,2.1,0,0,1,.08-.629,1.318,1.318,0,0,1,.151-.328,3.339,3.339,0,0,1,.51-.591c.244-.236.566-.517.957-.863a12.634,12.634,0,0,0,2.582-3.229,10.991,10.991,0,0,0,1.448-5.386A13.424,13.424,0,0,0,280.479,6.994Zm-.234,13.066a10.847,10.847,0,0,1-2.192,2.747c-.341.3-.643.564-.918.822a7.089,7.089,0,0,0-.569.595,3.481,3.481,0,0,0-.63,1.069,3.84,3.84,0,0,0-.207,1.315v.008l.339,19.74v.021a1.147,1.147,0,0,1-1.147,1.147h-1.559a1.147,1.147,0,0,1-1.147-1.147v-.021l.339-19.74v-.008a3.922,3.922,0,0,0-.162-1.178,3.2,3.2,0,0,0-.352-.766,5.1,5.1,0,0,0-.79-.937c-.3-.291-.635-.58-1.019-.92a10.8,10.8,0,0,1-2.193-2.747,9.135,9.135,0,0,1-1.213-4.481,11.589,11.589,0,0,1,2.411-7.41A7.75,7.75,0,0,1,271.6,6.2a5.2,5.2,0,0,1,5.087,0,8.359,8.359,0,0,1,3.334,3.41,12.278,12.278,0,0,1,1.437,5.967A9.127,9.127,0,0,1,280.245,20.059Z" transform="translate(-201.966 -3.353)" fill="#fff"/></g></svg>