<svg xmlns="http://www.w3.org/2000/svg" xmlns:xlink="http://www.w3.org/1999/xlink" width="49" height="31" viewBox="0 0 49 31"><defs><clipPath id="a"><rect width="49" height="31" transform="translate(0 -0.284)" fill="#fff"/></clipPath></defs><g transform="translate(-0.059 -0.015)"><g transform="translate(0.059 0.3)" clip-path="url(#a)"><path d="M28.44,106.73H3.346A3.35,3.35,0,0,1,0,103.384V93.346A3.35,3.35,0,0,1,3.346,90H28.44a3.35,3.35,0,0,1,3.346,3.346v10.038a3.35,3.35,0,0,1-3.346,3.346M3.346,91.673a1.675,1.675,0,0,0-1.673,1.673v10.038a1.675,1.675,0,0,0,1.673,1.673H28.44a1.675,1.675,0,0,0,1.673-1.673V93.346a1.675,1.675,0,0,0-1.673-1.673Z" transform="translate(-0.103 -75.464)" fill="#fff"/><path d="M44.258,58.365a.837.837,0,0,1-.836-.836V51.673H21.673v5.855a.836.836,0,1,1-1.673,0V50.836A.837.837,0,0,1,20.836,50H44.258a.837.837,0,0,1,.836.836v6.692a.837.837,0,0,1-.836.836" transform="translate(-16.757 -42.156)" fill="#fff"/><path d="M22.585,123.365H.836a.836.836,0,0,1,0-1.673H21.749v-5.019H.836a.836.836,0,1,1,0-1.673H22.585a.837.837,0,0,1,.836.836v6.692a.837.837,0,0,1-.836.836" transform="translate(-0.103 -96.281)" fill="#fff"/><path d="M22.528,71.673H15.836a.836.836,0,1,1,0-1.673h6.692a.836.836,0,1,1,0,1.673" transform="translate(-12.593 -58.81)" fill="#fff"/><path d="M99.22,71.673H85.836a.836.836,0,1,1,0-1.673H99.22a.836.836,0,0,1,0,1.673" transform="translate(-70.883 -58.81)" fill="#fff"/><path d="M30.585,14.2a.837.837,0,0,1-.814-.645c-.818-3.474,1.737-4.96,3.6-6.044,1.038-.6,2.019-1.174,2.183-1.868a.837.837,0,0,1,1.628.385c-.33,1.394-1.672,2.175-2.97,2.929-2.084,1.212-3.313,2.1-2.815,4.215a.837.837,0,0,1-.815,1.028" transform="translate(-24.763 -4.684)" fill="#fff"/><path d="M79.986,14.2a.837.837,0,0,1-.805-.613c-.787-2.834-4.787-2.772-6.935-2.739-.2,0-.391.006-.555.006-3.4,0-5.7-1.651-6.656-4.775a.836.836,0,1,1,1.6-.487c.735,2.415,2.389,3.59,5.055,3.59.156,0,.334,0,.529-.006,2.415-.036,7.439-.114,8.572,3.964a.837.837,0,0,1-.806,1.061" transform="translate(-54.228 -4.682)" fill="#fff"/><path d="M161.086,31.787a.836.836,0,0,1-.722-.413L145.116,5.422a.837.837,0,0,1,.308-1.151L152.76.109a.837.837,0,0,1,1.134.3l15.249,25.951a.837.837,0,0,1-.309,1.151L161.5,31.677a.833.833,0,0,1-.412.109m-14.1-26.479,14.4,24.509,5.881-3.336-14.4-24.509Z" transform="translate(-120.845 -0.52)" fill="#fff"/></g></g></svg>