<svg xmlns="http://www.w3.org/2000/svg" xmlns:xlink="http://www.w3.org/1999/xlink" width="20" height="38" viewBox="0 0 20 38"><defs><clipPath id="a"><rect width="20" height="38" transform="translate(0.309 -0.283)" fill="#fff"/></clipPath></defs><g transform="translate(-0.665 0.673)"><g transform="translate(0.356 -0.39)" clip-path="url(#a)"><path d="M21.288,15.107H.687a.686.686,0,0,1-.643-.928L5.194.446A.686.686,0,0,1,5.837,0h10.3a.688.688,0,0,1,.643.446l5.15,13.734a.687.687,0,0,1-.643.928M1.678,13.734H20.3L15.662,1.373H6.313Z" transform="translate(-0.516 0.566)" fill="#fff"/><path d="M14.434,24.12A3.437,3.437,0,0,1,11,20.687a.687.687,0,1,1,1.373,0,2.06,2.06,0,1,0,4.12,0,.687.687,0,1,1,1.373,0,3.437,3.437,0,0,1-3.434,3.434" transform="translate(-3.963 -5.7)" fill="#fff"/><path d="M17.687,39.107A.687.687,0,0,1,17,38.421V24.687a.687.687,0,0,1,1.373,0V38.421a.687.687,0,0,1-.687.687" transform="translate(-5.842 -6.954)" fill="#fff"/><path d="M13.687,39.107A.687.687,0,0,1,13,38.421V24.687a.687.687,0,0,1,1.373,0V38.421a.687.687,0,0,1-.687.687" transform="translate(-4.589 -6.954)" fill="#fff"/><path d="M17.18,48.12a.687.687,0,0,1-.687-.687,2.06,2.06,0,1,0-4.12,0,.687.687,0,0,1-1.373,0,3.434,3.434,0,0,1,6.867,0,.687.687,0,0,1-.687.687" transform="translate(-3.963 -13.219)" fill="#fff"/><path d="M19.047,52.12H6.687A.687.687,0,0,1,6,51.434,3.437,3.437,0,0,1,9.434,48H16.3a3.438,3.438,0,0,1,3.434,3.434.687.687,0,0,1-.687.687M7.491,50.747H18.243A2.065,2.065,0,0,0,16.3,49.373H9.434a2.064,2.064,0,0,0-1.943,1.373" transform="translate(-2.396 -14.473)" fill="#fff"/><path d="M24.687,30.3A.687.687,0,0,1,24,29.614V20.687a.687.687,0,1,1,1.373,0v8.927a.687.687,0,0,1-.687.687" transform="translate(-8.035 -5.7)" fill="#fff"/><path d="M24.06,37.12a2.06,2.06,0,1,1,2.06-2.06,2.063,2.063,0,0,1-2.06,2.06m0-2.747a.687.687,0,1,0,.687.687.687.687,0,0,0-.687-.687" transform="translate(-7.409 -9.773)" fill="#fff"/></g></g></svg>