<svg xmlns="http://www.w3.org/2000/svg" width="17.208" height="16.693" viewBox="0 0 17.208 16.693">
  <g id="グループ_61" data-name="グループ 61" transform="translate(0)">
    <path id="パス_28" data-name="パス 28" d="M163.01,59.9H146.784a.491.491,0,0,1-.491-.491V48.84a.491.491,0,0,1,.491-.491h4.262V47.061a3.851,3.851,0,0,1,7.7,0v1.288h4.261a.491.491,0,0,1,.491.491V59.412A.491.491,0,0,1,163.01,59.9Zm-15.736-.982h15.245V49.331h-3.771v2.256a.491.491,0,0,1-.982,0V49.331h-5.74v2.256a.491.491,0,0,1-.982,0V49.331h-3.771Zm4.753-10.572h5.74V47.061a2.908,2.908,0,0,0-2.87-2.87,2.873,2.873,0,0,0-2.87,2.87Z" transform="translate(-146.293 -43.21)" fill="#fff"/>
  </g>
</svg>
