<svg xmlns="http://www.w3.org/2000/svg" width="20.811" height="25.019" viewBox="0 0 20.811 25.019">
  <g id="食事の無料アイコン13" transform="translate(-43.062)">
    <path id="パス_39" data-name="パス 39" d="M52.842,3.788c-.044-.57-.088-1.088-.125-1.493-.019-.2-.036-.378-.049-.517s-.025-.243-.034-.309a1.8,1.8,0,0,0-.121-.462,1.511,1.511,0,0,0-.449-.619,1.283,1.283,0,0,0-.814-.28l0,0a1.389,1.389,0,0,0-.572.121,1.329,1.329,0,0,0-.607.555,1.56,1.56,0,0,0-.2.785v4.56a.526.526,0,0,1-.024.172.13.13,0,0,1-.024.046.069.069,0,0,1-.035.026.279.279,0,0,1-.114.019.126.126,0,0,1-.055-.011.133.133,0,0,1-.06-.054.189.189,0,0,1-.029-.106v0L49.5,1.483a1.518,1.518,0,0,0-.122-.6,1.452,1.452,0,0,0-2.669,0,1.518,1.518,0,0,0-.122.6l-.02,4.735v0a.189.189,0,0,1-.03.106.132.132,0,0,1-.059.054.128.128,0,0,1-.056.011.276.276,0,0,1-.114-.019.071.071,0,0,1-.036-.026.146.146,0,0,1-.024-.046.541.541,0,0,1-.024-.172V1.567a1.561,1.561,0,0,0-.2-.785,1.325,1.325,0,0,0-.607-.555,1.389,1.389,0,0,0-.572-.121l0,0a1.283,1.283,0,0,0-.813.28,1.512,1.512,0,0,0-.449.619,1.81,1.81,0,0,0-.121.462c-.009.067-.02.168-.034.309s-.031.314-.049.517c-.037.405-.081.923-.125,1.493-.087,1.14-.171,2.483-.188,3.546,0,.033,0,.065,0,.1a4.607,4.607,0,0,0,.756,2.644,3.883,3.883,0,0,0,1.557,1.333,1.417,1.417,0,0,1,.578.492,1.324,1.324,0,0,1,.224.739l-.184,10.719v.029a1.627,1.627,0,0,0,1.63,1.629h.849A1.627,1.627,0,0,0,50.1,23.389v-.029l-.184-10.719a1.321,1.321,0,0,1,.224-.739,1.414,1.414,0,0,1,.578-.492,3.884,3.884,0,0,0,1.557-1.333,4.6,4.6,0,0,0,.757-2.644c0-.033,0-.065,0-.1C53.013,6.271,52.929,4.928,52.842,3.788Zm-1.4,5.722a2.877,2.877,0,0,1-1.15.986,2.422,2.422,0,0,0-.991.846,2.335,2.335,0,0,0-.394,1.3v0l.184,10.731v.012a.62.62,0,0,1-.622.622h-.849A.621.621,0,0,1,47,23.389v-.012l.184-10.731v0a2.338,2.338,0,0,0-.393-1.3A2.425,2.425,0,0,0,45.8,10.5a2.876,2.876,0,0,1-1.15-.986,3.616,3.616,0,0,1-.58-2.078c0-.028,0-.055,0-.082.028-1.794.261-4.525.357-5.471.015-.134.025-.233.032-.28a.8.8,0,0,1,.1-.3.387.387,0,0,1,.152-.153.3.3,0,0,1,.138-.028h0a.359.359,0,0,1,.157.03.307.307,0,0,1,.105.078.517.517,0,0,1,.111.344v4.56a1.481,1.481,0,0,0,.1.564,1.1,1.1,0,0,0,.645.628,1.293,1.293,0,0,0,.456.079,1.16,1.16,0,0,0,.464-.1,1.175,1.175,0,0,0,.369-.262,1.2,1.2,0,0,0,.319-.819l.02-4.735v0a.52.52,0,0,1,.04-.207.434.434,0,0,1,.1-.143.447.447,0,0,1,.718.143.52.52,0,0,1,.04.207v0l.02,4.735a1.2,1.2,0,0,0,.319.819A1.171,1.171,0,0,0,49.2,7.3a1.158,1.158,0,0,0,.463.1,1.29,1.29,0,0,0,.456-.079,1.079,1.079,0,0,0,.316-.179,1.1,1.1,0,0,0,.33-.449,1.481,1.481,0,0,0,.1-.564V1.567a.517.517,0,0,1,.111-.344.306.306,0,0,1,.1-.078.361.361,0,0,1,.158-.03h0a.3.3,0,0,1,.137.028.384.384,0,0,1,.153.153.8.8,0,0,1,.1.3c.007.047.018.147.032.28.1.946.329,3.677.357,5.471,0,.028,0,.054,0,.082A3.617,3.617,0,0,1,51.444,9.51Z" fill="#f70"/>
    <path id="パス_40" data-name="パス 40" d="M273.4,5.483a5.216,5.216,0,0,0-1.593-1.322,3.829,3.829,0,0,0-3.7,0,5.543,5.543,0,0,0-2.225,2.257,7.681,7.681,0,0,0-.907,3.732,5.975,5.975,0,0,0,.787,2.928,6.878,6.878,0,0,0,1.4,1.755c.189.167.349.307.475.426a2.8,2.8,0,0,1,.228.237.874.874,0,0,1,.167.275,1.083,1.083,0,0,1,.054.373l-.184,10.719v.029a1.632,1.632,0,0,0,.467,1.142h0a1.631,1.631,0,0,0,1.163.488h.847a1.629,1.629,0,0,0,1.631-1.631v-.029l-.184-10.72a1.141,1.141,0,0,1,.043-.342.716.716,0,0,1,.082-.178,1.814,1.814,0,0,1,.277-.321c.133-.128.307-.281.52-.469a6.869,6.869,0,0,0,1.4-1.755,5.975,5.975,0,0,0,.787-2.928A7.3,7.3,0,0,0,273.4,5.483Zm-.127,7.1a5.9,5.9,0,0,1-1.192,1.494c-.186.164-.35.307-.5.447a3.856,3.856,0,0,0-.309.323,1.893,1.893,0,0,0-.342.581,2.088,2.088,0,0,0-.113.715v0l.184,10.731v.012a.624.624,0,0,1-.624.624h-.847a.624.624,0,0,1-.623-.624v-.011h0L269.1,16.15v0a2.132,2.132,0,0,0-.088-.641,1.737,1.737,0,0,0-.191-.416,2.772,2.772,0,0,0-.429-.51c-.163-.158-.345-.315-.554-.5a5.87,5.87,0,0,1-1.192-1.494,4.966,4.966,0,0,1-.659-2.436,6.3,6.3,0,0,1,1.311-4.028,4.213,4.213,0,0,1,1.283-1.069,2.827,2.827,0,0,1,2.766,0,4.544,4.544,0,0,1,1.812,1.854,6.675,6.675,0,0,1,.781,3.244A4.962,4.962,0,0,1,273.277,12.586Z" transform="translate(-211.07 -3.504)" fill="#f70"/>
  </g>
</svg>
