<svg xmlns="http://www.w3.org/2000/svg" width="20.739" height="29.035" viewBox="0 0 20.739 29.035">
  <g id="グループ_105" data-name="グループ 105" transform="translate(39.882 -35.081)">
    <g id="グループ_274" data-name="グループ 274" transform="translate(-39.646 35.4)">
      <path id="パス_17" data-name="パス 17" d="M44.295,14.518a.516.516,0,0,1-.221-.05c-3.948-1.863-7.344-7.739-7.487-7.988a.519.519,0,0,1-.042-.422l.438-1.315-.9-1.344a.518.518,0,0,1-.041-.5l.519-1.14a.519.519,0,0,1,.174-.21L38.813.094a.518.518,0,1,1,.595.849L37.45,2.315l-.341.749.877,1.316a.519.519,0,0,1,.061.452L37.6,6.162c.623,1.033,3.645,5.827,6.913,7.369a.519.519,0,0,1-.222.987" transform="translate(-31.57 -0.319)" fill="#f70"/>
      <path id="パス_18" data-name="パス 18" d="M117.7,31.522h-3.111a.518.518,0,1,1,0-1.037h2.557l-.888-13.321a3.609,3.609,0,0,0-1.193-2.456l-2.9-2.607a.518.518,0,1,1,.694-.771l2.9,2.607A4.642,4.642,0,0,1,117.3,17.1l.925,13.874a.519.519,0,0,1-.517.553" transform="translate(-97.719 -10.065)" fill="#f70"/>
      <path id="パス_19" data-name="パス 19" d="M83.26,91.7h-6.74a.518.518,0,0,1,0-1.037h6.222V72.519a.518.518,0,0,1,1.037,0V91.185a.519.519,0,0,1-.518.518" transform="translate(-66.387 -62.987)" fill="#f70"/>
      <path id="パス_20" data-name="パス 20" d="M79.111,94.416a.519.519,0,0,1-.518-.518V79.577a19.123,19.123,0,0,1-1.808-2.442c-.272-.424-.516-.869-.722-1.253a.518.518,0,1,1,.913-.491c.206.384.429.791.685,1.189A17.985,17.985,0,0,0,79.5,79.034a.518.518,0,0,1,.132.346V93.9a.519.519,0,0,1-.518.518" transform="translate(-66.386 -65.7)" fill="#f70"/>
      <path id="パス_21" data-name="パス 21" d="M59.11,10.775a.518.518,0,0,1-.458-.276A23.408,23.408,0,0,1,56,.519.519.519,0,0,1,56.517,0H61.7a.518.518,0,0,1,.518.518A23.414,23.414,0,0,1,59.568,10.5a.518.518,0,0,1-.458.276M57.057,1.038A23.3,23.3,0,0,0,59.11,9.092a23.228,23.228,0,0,0,2.053-8.054Z" transform="translate(-48.977 -0.32)" fill="#f70"/>
      <path id="パス_22" data-name="パス 22" d="M81.957,12a.518.518,0,0,1-.371-.88,29.566,29.566,0,0,0,3.766-4.956l-.444-1.331a.518.518,0,0,1,.06-.451l.877-1.316-.341-.75L83.547.944a.518.518,0,1,1,.594-.85l2.074,1.451a.517.517,0,0,1,.175.21L86.909,2.9a.518.518,0,0,1-.041.5l-.9,1.344.438,1.315a.518.518,0,0,1-.042.422,30.187,30.187,0,0,1-4.04,5.36.517.517,0,0,1-.371.157" transform="translate(-71.119 -0.319)" fill="#f70"/>
      <path id="パス_23" data-name="パス 23" d="M3.63,31.522H.519A.519.519,0,0,1,0,30.969L.927,17.095A4.638,4.638,0,0,1,2.46,13.937l2.9-2.607a.519.519,0,1,1,.694.771l-2.9,2.606a3.606,3.606,0,0,0-1.193,2.456L1.073,30.485H3.63a.518.518,0,0,1,0,1.037" transform="translate(-0.237 -10.065)" fill="#f70"/>
      <path id="パス_24" data-name="パス 24" d="M31.259,91.7h-6.74A.519.519,0,0,1,24,91.185V72.519a.518.518,0,0,1,1.037,0V90.666h6.222a.518.518,0,1,1,0,1.037" transform="translate(-21.126 -62.987)" fill="#f70"/>
      <path id="パス_25" data-name="パス 25" d="M68.519,116a.519.519,0,1,0,.518.519.517.517,0,0,0-.518-.519" transform="translate(-59.424 -101.283)" fill="#f70"/>
      <path id="パス_26" data-name="パス 26" d="M84.517,116a.519.519,0,1,0,.519.519.518.518,0,0,0-.519-.519" transform="translate(-73.348 -101.283)" fill="#f70"/>
      <path id="パス_27" data-name="パス 27" d="M68.519,140a.518.518,0,1,0,.518.518.517.517,0,0,0-.518-.518" transform="translate(-59.424 -122.173)" fill="#f70"/>
      <path id="パス_28" data-name="パス 28" d="M84.517,140a.518.518,0,1,0,.519.518.518.518,0,0,0-.519-.518" transform="translate(-73.348 -122.173)" fill="#f70"/>
      <path id="パス_29" data-name="パス 29" d="M28.666,148.149H24.518a.518.518,0,1,1,0-1.037h3.629v-2.074H24.518a.518.518,0,0,1,0-1.037h4.148a.518.518,0,0,1,.518.518v3.111a.518.518,0,0,1-.518.518" transform="translate(-21.126 -125.654)" fill="#f70"/>
      <path id="パス_30" data-name="パス 30" d="M100.666,169.039H96.517a.518.518,0,0,1,0-1.037h4.148a.518.518,0,0,1,0,1.037" transform="translate(-83.793 -146.544)" fill="#f70"/>
      <path id="パス_31" data-name="パス 31" d="M100.666,145.038H96.517a.518.518,0,1,1,0-1.037h4.148a.518.518,0,0,1,0,1.037" transform="translate(-83.793 -125.654)" fill="#f70"/>
    </g>
  </g>
</svg>
