<svg xmlns="http://www.w3.org/2000/svg" width="26.852" height="17.593" viewBox="0 0 26.852 17.593">
  <g id="グループ_273" data-name="グループ 273" transform="translate(0.057 0.288)">
    <path id="パス_116" data-name="パス 116" d="M15.741,99.259H1.852A1.854,1.854,0,0,1,0,97.407V91.852A1.854,1.854,0,0,1,1.852,90H15.741a1.854,1.854,0,0,1,1.852,1.852v5.556a1.854,1.854,0,0,1-1.852,1.852M1.852,90.926a.927.927,0,0,0-.926.926v5.556a.927.927,0,0,0,.926.926H15.741a.927.927,0,0,0,.926-.926V91.852a.927.927,0,0,0-.926-.926Z" transform="translate(-0.057 -81.955)" fill="#f70"/>
    <path id="パス_117" data-name="パス 117" d="M33.426,54.63a.463.463,0,0,1-.463-.463V50.926H20.926v3.241a.463.463,0,1,1-.926,0v-3.7A.463.463,0,0,1,20.463,50H33.426a.463.463,0,0,1,.463.463v3.7a.463.463,0,0,1-.463.463" transform="translate(-18.205 -45.658)" fill="#f70"/>
    <path id="パス_118" data-name="パス 118" d="M12.5,119.63H.463a.463.463,0,0,1,0-.926H12.037v-2.778H.463a.463.463,0,1,1,0-.926H12.5a.463.463,0,0,1,.463.463v3.7a.463.463,0,0,1-.463.463" transform="translate(-0.057 -104.64)" fill="#f70"/>
    <path id="パス_119" data-name="パス 119" d="M19.167,70.926h-3.7a.463.463,0,0,1,0-.926h3.7a.463.463,0,0,1,0,.926" transform="translate(-13.668 -63.807)" fill="#f70"/>
    <path id="パス_120" data-name="パス 120" d="M92.87,70.926H85.463a.463.463,0,0,1,0-.926H92.87a.463.463,0,0,1,0,.926" transform="translate(-77.187 -63.807)" fill="#f70"/>
    <path id="パス_121" data-name="パス 121" d="M30.151,10.092a.463.463,0,0,1-.45-.357c-.453-1.923.961-2.745,1.994-3.345.575-.334,1.117-.65,1.208-1.034a.463.463,0,0,1,.9.213c-.183.772-.926,1.2-1.644,1.621-1.153.671-1.833,1.162-1.558,2.333a.463.463,0,0,1-.451.569" transform="translate(-26.929 -4.825)" fill="#f70"/>
    <path id="パス_122" data-name="パス 122" d="M73.294,10.091a.463.463,0,0,1-.446-.339C72.412,8.183,70.2,8.218,69.01,8.236l-.307,0A3.531,3.531,0,0,1,65.019,5.6a.463.463,0,1,1,.886-.27,2.617,2.617,0,0,0,2.8,1.987l.293,0c1.337-.02,4.117-.063,4.744,2.194a.463.463,0,0,1-.446.587" transform="translate(-59.038 -4.823)" fill="#f70"/>
    <path id="パス_123" data-name="パス 123" d="M153.9,17.593a.463.463,0,0,1-.4-.228L145.064,3a.463.463,0,0,1,.171-.637L149.3.06a.463.463,0,0,1,.628.168l8.439,14.363a.463.463,0,0,1-.171.637l-4.06,2.3a.461.461,0,0,1-.228.06M146.1,2.937l7.97,13.565,3.255-1.847-7.97-13.565Z" transform="translate(-131.632 -0.288)" fill="#f70"/>
  </g>
</svg>
