<svg xmlns="http://www.w3.org/2000/svg" width="58.492" height="58.492" viewBox="0 0 58.492 58.492"><g transform="translate(-1285.281 -4492.041)"><circle cx="29.246" cy="29.246" r="29.246" transform="translate(1285.281 4492.041)" fill="#f70"/><g transform="translate(1299.437 4506.918)"><path d="M1015.1,420.424H999.418a7.258,7.258,0,0,1-7.25-7.25V398.936a7.257,7.257,0,0,1,7.25-7.25H1015.1a7.258,7.258,0,0,1,7.25,7.25v14.239A7.258,7.258,0,0,1,1015.1,420.424Zm-15.681-26.556a5.074,5.074,0,0,0-5.068,5.068v14.239a5.074,5.074,0,0,0,5.068,5.068H1015.1a5.074,5.074,0,0,0,5.068-5.068V398.936a5.074,5.074,0,0,0-5.068-5.068Z" transform="translate(-992.168 -391.686)" fill="#fff"/><g transform="translate(7.152 6.397)"><path d="M1010.917,417.231a7.937,7.937,0,1,1,7.938-7.938A7.947,7.947,0,0,1,1010.917,417.231Zm0-13.693a5.756,5.756,0,1,0,5.756,5.756A5.763,5.763,0,0,0,1010.917,403.537Z" transform="translate(-1002.979 -401.356)" fill="#fff"/></g><g transform="translate(22.618 4.58)"><circle cx="1.29" cy="1.29" r="1.29" fill="#fff"/></g></g></g></svg>