<svg xmlns="http://www.w3.org/2000/svg" width="33.556" height="33.557" viewBox="0 0 33.556 33.557"><g transform="translate(0 0)"><path d="M206.981,186.105a16.779,16.779,0,1,1,16.779-16.779A16.8,16.8,0,0,1,206.981,186.105Zm-9.5-4.883a15.205,15.205,0,0,0,19.007,0l-.292-3.967a2.047,2.047,0,0,0-1.356-1.937l-4.494-1.528a2.214,2.214,0,0,1-1.558-2.3,2.3,2.3,0,0,1,1.019-2.3c.12-.1.259-.217.421-.36a4.88,4.88,0,1,0-6.487,0c.163.143.3.26.422.36a2.3,2.3,0,0,1,1.019,2.3,2.213,2.213,0,0,1-1.558,2.3l-4.495,1.528a2.043,2.043,0,0,0-1.354,1.937Zm9.5-27.128a15.225,15.225,0,0,0-10.956,25.8l.2-2.757a3.548,3.548,0,0,1,2.4-3.287l4.494-1.529c.331-.112.509-.278.509-.831,0-.728,0-.728-.465-1.117-.13-.109-.281-.235-.456-.391a6.428,6.428,0,1,1,8.542,0c-.174.156-.326.282-.455.391-.466.389-.466.389-.466,1.117,0,.553.179.72.51.831l4.494,1.529a3.552,3.552,0,0,1,2.4,3.287l.2,2.756a15.224,15.224,0,0,0-10.957-25.8Z" transform="translate(-190.203 -152.548)" fill="#f70"/></g></svg>