<svg xmlns="http://www.w3.org/2000/svg" width="21.096" height="21.097" viewBox="0 0 21.096 21.097"><g transform="translate(0.5 0.5)"><path d="M-121.416,312.634a.6.6,0,0,1-.424-.175l-7.272-7.271a7.14,7.14,0,0,1-4.628,1.7,7.183,7.183,0,0,1-7.174-7.174,7.182,7.182,0,0,1,7.174-7.174,7.182,7.182,0,0,1,7.174,7.174,7.143,7.143,0,0,1-1.7,4.63l7.272,7.27a.6.6,0,0,1,0,.847A.6.6,0,0,1-121.416,312.634Zm-12.323-18.9a5.983,5.983,0,0,0-5.977,5.976,5.983,5.983,0,0,0,5.977,5.976,5.984,5.984,0,0,0,5.977-5.976A5.984,5.984,0,0,0-133.739,293.735Z" transform="translate(140.913 -292.537)" fill="#101010" stroke="#101010" stroke-width="1"/></g></svg>