<svg xmlns="http://www.w3.org/2000/svg" width="22.313" height="20.389" viewBox="0 0 22.313 20.389"><g transform="translate(0 -22.071)"><path d="M110.435,30.166a1.677,1.677,0,0,0,1.677-1.677l.612-6.417h-2.683l-1.284,6.417A1.677,1.677,0,0,0,110.435,30.166Z" transform="translate(-104.018 -0.001)" fill="#101010"/><path d="M219.2,30.166a1.677,1.677,0,0,0,1.677-1.677l-.335-6.417h-2.683l-.335,6.417A1.677,1.677,0,0,0,219.2,30.166Z" transform="translate(-208.04 -0.001)" fill="#101010"/><path d="M314.516,30.165a1.677,1.677,0,0,0,1.677-1.677l-1.283-6.417h-2.683l.612,6.417A1.677,1.677,0,0,0,314.516,30.165Z" transform="translate(-298.619)" fill="#101010"/><path d="M20.081,22.071H17.4l1.56,6.417a1.673,1.673,0,0,0,1.267,1.621V41.057H17.7V33.649H11.323v7.408H2.087V30.108a1.674,1.674,0,0,0,1.267-1.621l1.56-6.417H2.231L0,28.488a1.67,1.67,0,0,0,.684,1.345V42.46H21.629V29.833a1.671,1.671,0,0,0,.684-1.345ZM16.646,41.057H12.375V34.7h4.271Z" fill="#101010"/><rect width="3.729" height="3.729" transform="translate(4.768 33.152)" fill="#101010"/></g></svg>