<svg xmlns="http://www.w3.org/2000/svg" viewBox="0 0 270 108"><path d="M66.368 57.606l-.597 5.314h-.004a10.6 10.6 0 01-1.278 3.903 10.851 10.851 0 01-2.553 3.024 11.871 11.871 0 01-3.548 2.005 12.474 12.474 0 01-4.229.731 11.003 11.003 0 01-4.049-.731 8.604 8.604 0 01-3.055-2.005 7.702 7.702 0 01-1.81-3.023 9.062 9.062 0 01-.325-3.904h.008l.597-5.314h-4.303l-.597 5.314h-.002a13.306 13.306 0 00.474 5.651 11.317 11.317 0 002.663 4.448 12.22 12.22 0 004.342 2.861 15.008 15.008 0 005.529 1.006 17.081 17.081 0 0010.822-3.867 15.956 15.956 0 003.755-4.45 15.15 15.15 0 001.866-5.649l.597-5.314zM151.839 62.275a12.958 12.958 0 00-.526-5.006 11.327 11.327 0 00-2.663-4.447 12.21 12.21 0 00-4.343-2.861 15.021 15.021 0 00-5.529-1.008 17.08 17.08 0 00-10.82 3.868 15.944 15.944 0 00-3.756 4.449 14.556 14.556 0 00-1.387 11.301 11.315 11.315 0 002.663 4.448 12.218 12.218 0 004.342 2.861 15.008 15.008 0 005.528 1.006 17.082 17.082 0 0010.823-3.867c.03-.025.057-.053.087-.078l-.387 3.159h4.303l1.618-13.178v-.002l.079-.644zm-8.185 7.572a11.87 11.87 0 01-3.548 2.005 12.476 12.476 0 01-4.229.731 11.006 11.006 0 01-4.05-.73 8.604 8.604 0 01-3.054-2.006 7.703 7.703 0 01-1.81-3.023 9.064 9.064 0 01-.325-3.904 10.436 10.436 0 011.283-3.902 10.845 10.845 0 012.553-3.024 11.888 11.888 0 013.547-2.005 12.492 12.492 0 014.229-.733 11.018 11.018 0 014.05.733 8.58 8.58 0 013.054 2.005 7.704 7.704 0 011.812 3.021 10.15 10.15 0 01-.959 7.808 10.852 10.852 0 01-2.553 3.024zM197.378 37.596a11.327 11.327 0 00-2.663-4.448 12.21 12.21 0 00-4.343-2.86 15.021 15.021 0 00-5.529-1.008h-10.002l-4.783 38.953-.01.071h10.004a17.043 17.043 0 005.775-1.007 16.872 16.872 0 005.046-2.86 15.955 15.955 0 003.756-4.449 15.158 15.158 0 001.866-5.65l1.362-11.091a13.138 13.138 0 00-.479-5.65zm-5.19 16.742a10.61 10.61 0 01-1.278 3.904 10.854 10.854 0 01-2.553 3.022 11.853 11.853 0 01-3.548 2.005 12.493 12.493 0 01-4.229.732h-5.7l3.735-30.418h5.7a11.02 11.02 0 014.05.732 8.58 8.58 0 013.054 2.006 7.704 7.704 0 011.812 3.021 9.214 9.214 0 01.32 3.905zM35.93 37.596a11.33 11.33 0 00-2.662-4.448 12.209 12.209 0 00-4.344-2.86 15.02 15.02 0 00-5.525-1.008l-.001.006v-.006H11.296l-.528 4.303-2.372 19.32H.528L0 57.206h7.866l-6.12 49.843H6.05l6.12-49.843h5.179a11.017 11.017 0 014.046.732 8.58 8.58 0 013.055 2.005 7.703 7.703 0 011.812 3.021 9.216 9.216 0 01.32 3.898l-1.406 11.444h4.303l1.404-11.437h.005a13.14 13.14 0 00-.479-5.65 11.445 11.445 0 00-1.172-2.524c-.031-.053-.053-.098-.088-.154a3.1 3.1 0 01.836-4.575l.003-.016c.27-.197.543-.39.802-.604a15.955 15.955 0 003.754-4.45 15.148 15.148 0 001.866-5.648 13.14 13.14 0 00-.478-5.652zm-5.105 9.554a10.849 10.849 0 01-2.554 3.023 11.868 11.868 0 01-3.548 2.006 12.472 12.472 0 01-4.226.731l.001-.007h-7.8l2.372-19.32h7.8a11.02 11.02 0 014.046.732 8.58 8.58 0 013.055 2.006 7.703 7.703 0 011.812 3.021 10.15 10.15 0 01-.958 7.808zM107.756 49.403a11.327 11.327 0 00-2.663-4.448 12.209 12.209 0 00-4.344-2.86 15.022 15.022 0 00-5.528-1.008 16.635 16.635 0 00-7.705 1.853c-.069.03-.124.048-.2.086-2.678 1.349-2.607-1.072-2.537-1.76l.022-.179L89.729.951h-4.303l-6.643 54.1-1.618 13.182h4.303l.387-3.156c.023.024.042.051.065.075a12.22 12.22 0 004.343 2.861 15.007 15.007 0 005.528 1.007 17.081 17.081 0 0010.823-3.867 15.956 15.956 0 003.754-4.45 15.148 15.148 0 001.866-5.649 13.14 13.14 0 00-.478-5.65zm-5.106 9.554a10.85 10.85 0 01-2.553 3.023 11.87 11.87 0 01-3.548 2.006 12.476 12.476 0 01-4.23.73 11.006 11.006 0 01-4.049-.73 8.604 8.604 0 01-3.055-2.006 7.702 7.702 0 01-1.81-3.022 9.026 9.026 0 01-.333-3.787l.028-.235a10.427 10.427 0 011.263-3.785 10.844 10.844 0 012.553-3.023 11.884 11.884 0 013.547-2.006 12.492 12.492 0 014.23-.732 11.018 11.018 0 014.049.732 8.579 8.579 0 013.054 2.006 7.703 7.703 0 011.812 3.02 10.15 10.15 0 01-.958 7.809zM232.326 57.606h-4.303l-.597 5.314h-.004a10.598 10.598 0 01-1.278 3.903 10.852 10.852 0 01-2.553 3.024 11.87 11.87 0 01-3.548 2.005 12.475 12.475 0 01-4.23.731 11.002 11.002 0 01-4.049-.731 8.606 8.606 0 01-3.054-2.005 7.702 7.702 0 01-1.811-3.023 9.062 9.062 0 01-.324-3.904h.007l.597-5.314h-4.303l-.597 5.314h-.002a13.306 13.306 0 00.474 5.651 11.318 11.318 0 002.663 4.448 12.22 12.22 0 004.343 2.861 15.007 15.007 0 005.528 1.006 17.081 17.081 0 0010.823-3.867 15.956 15.956 0 003.755-4.45 15.148 15.148 0 001.866-5.648zM269.41 49.403a11.33 11.33 0 00-2.663-4.448 12.21 12.21 0 00-4.344-2.86 15.021 15.021 0 00-5.528-1.008 16.634 16.634 0 00-7.705 1.853c-.069.031-.124.048-.2.087-2.678 1.348-2.606-1.073-2.537-1.761l.022-.179L251.384.951h-4.303l-6.643 54.1-1.618 13.182h4.303l.387-3.156c.023.024.042.051.065.075a12.219 12.219 0 004.342 2.861 15.008 15.008 0 005.529 1.006 17.08 17.08 0 0010.822-3.867 15.955 15.955 0 003.755-4.45 15.151 15.151 0 001.866-5.648 13.14 13.14 0 00-.479-5.65zm-5.106 9.554a10.848 10.848 0 01-2.553 3.023 11.87 11.87 0 01-3.549 2.006 12.475 12.475 0 01-4.228.73 11.005 11.005 0 01-4.05-.73 8.604 8.604 0 01-3.054-2.006 7.702 7.702 0 01-1.81-3.022 9.029 9.029 0 01-.334-3.787l.029-.235a10.425 10.425 0 011.263-3.785 10.843 10.843 0 012.553-3.023 11.885 11.885 0 013.547-2.006 12.492 12.492 0 014.229-.732 11.019 11.019 0 014.05.732 8.578 8.578 0 013.054 2.006 7.702 7.702 0 011.812 3.02 10.15 10.15 0 01-.959 7.809z"/></svg>